<svg width="31" height="30" viewBox="0 0 31 30" fill="none" xmlns="http://www.w3.org/2000/svg">
<path d="M26.532 6.89883C26.444 6.79352 26.334 6.70882 26.2096 6.6507C26.0853 6.59259 25.9497 6.56248 25.8125 6.5625H6.90781L6.33477 3.41484C6.25628 2.98281 6.02865 2.59204 5.69157 2.31064C5.35449 2.02923 4.92934 1.87506 4.49023 1.875H2.375C2.12636 1.875 1.8879 1.97377 1.71209 2.14959C1.53627 2.3254 1.4375 2.56386 1.4375 2.8125C1.4375 3.06114 1.53627 3.2996 1.71209 3.47541C1.8879 3.65123 2.12636 3.75 2.375 3.75H4.48438L7.47969 20.1902C7.56792 20.6778 7.78339 21.1334 8.1043 21.5109C7.66138 21.9246 7.3417 22.4529 7.18069 23.0372C7.01969 23.6215 7.02365 24.2389 7.19214 24.8211C7.36064 25.4033 7.68708 25.9274 8.13526 26.3354C8.58345 26.7434 9.13588 27.0192 9.73128 27.1324C10.3267 27.2456 10.9418 27.1917 11.5084 26.9766C12.075 26.7615 12.571 26.3937 12.9414 25.914C13.3117 25.4342 13.542 24.8613 13.6066 24.2587C13.6712 23.6561 13.5677 23.0474 13.3074 22.5H18.6301C18.4203 22.9391 18.3118 23.4196 18.3125 23.9062C18.3125 24.5552 18.5049 25.1896 18.8655 25.7292C19.226 26.2688 19.7385 26.6894 20.3381 26.9377C20.9376 27.1861 21.5974 27.2511 22.2339 27.1245C22.8704 26.9978 23.4551 26.6853 23.9139 26.2264C24.3728 25.7676 24.6853 25.1829 24.812 24.5464C24.9386 23.9099 24.8736 23.2501 24.6252 22.6506C24.3769 22.051 23.9563 21.5385 23.4167 21.178C22.8771 20.8174 22.2427 20.625 21.5938 20.625H10.2465C10.0269 20.625 9.81436 20.5479 9.64582 20.4072C9.47728 20.2665 9.36346 20.0711 9.32422 19.8551L8.95273 17.8125H22.5465C23.2051 17.8124 23.8429 17.5811 24.3485 17.159C24.8541 16.7369 25.1955 16.1508 25.3133 15.5027L26.7383 7.66758C26.7624 7.53216 26.7564 7.39308 26.7208 7.26023C26.6851 7.12737 26.6207 7.00399 26.532 6.89883ZM11.75 23.9062C11.75 24.1844 11.6675 24.4563 11.513 24.6875C11.3585 24.9188 11.1389 25.099 10.8819 25.2055C10.6249 25.3119 10.3422 25.3397 10.0694 25.2855C9.79662 25.2312 9.54605 25.0973 9.34938 24.9006C9.15271 24.704 9.01878 24.4534 8.96452 24.1806C8.91026 23.9078 8.93811 23.6251 9.04454 23.3681C9.15098 23.1111 9.33122 22.8915 9.56248 22.737C9.79374 22.5825 10.0656 22.5 10.3438 22.5C10.7167 22.5 11.0744 22.6482 11.3381 22.9119C11.6018 23.1756 11.75 23.5333 11.75 23.9062ZM23 23.9062C23 24.1844 22.9175 24.4563 22.763 24.6875C22.6085 24.9188 22.3889 25.099 22.1319 25.2055C21.8749 25.3119 21.5922 25.3397 21.3194 25.2855C21.0466 25.2312 20.796 25.0973 20.5994 24.9006C20.4027 24.704 20.2688 24.4534 20.2145 24.1806C20.1603 23.9078 20.1881 23.6251 20.2945 23.3681C20.401 23.1111 20.5812 22.8915 20.8125 22.737C21.0437 22.5825 21.3156 22.5 21.5938 22.5C21.9667 22.5 22.3244 22.6482 22.5881 22.9119C22.8518 23.1756 23 23.5333 23 23.9062ZM23.4688 15.1676C23.4294 15.3842 23.3151 15.58 23.1458 15.7208C22.9765 15.8616 22.7631 15.9383 22.543 15.9375H8.61172L7.24883 8.4375H24.6887L23.4688 15.1676Z" fill="#232323"/>
</svg>
