<svg width="25" height="24" viewBox="0 0 25 24" fill="none" xmlns="http://www.w3.org/2000/svg">
<path d="M21.5 4.125H15.5C14.9377 4.12482 14.3814 4.23995 13.8654 4.46328C13.3494 4.68662 12.8847 5.0134 12.5 5.42344C12.1153 5.0134 11.6506 4.68662 11.1346 4.46328C10.6186 4.23995 10.0623 4.12482 9.5 4.125H3.5C3.00272 4.125 2.52581 4.32254 2.17417 4.67418C1.82254 5.02581 1.625 5.50272 1.625 6V18C1.625 18.4973 1.82254 18.9742 2.17417 19.3258C2.52581 19.6775 3.00272 19.875 3.5 19.875H9.5C9.99728 19.875 10.4742 20.0725 10.8258 20.4242C11.1775 20.7758 11.375 21.2527 11.375 21.75C11.375 22.0484 11.4935 22.3345 11.7045 22.5455C11.9155 22.7565 12.2016 22.875 12.5 22.875C12.7984 22.875 13.0845 22.7565 13.2955 22.5455C13.5065 22.3345 13.625 22.0484 13.625 21.75C13.625 21.2527 13.8225 20.7758 14.1742 20.4242C14.5258 20.0725 15.0027 19.875 15.5 19.875H21.5C21.9973 19.875 22.4742 19.6775 22.8258 19.3258C23.1775 18.9742 23.375 18.4973 23.375 18V6C23.375 5.50272 23.1775 5.02581 22.8258 4.67418C22.4742 4.32254 21.9973 4.125 21.5 4.125ZM9.5 17.625H3.875V6.375H9.5C9.99728 6.375 10.4742 6.57254 10.8258 6.92418C11.1775 7.27581 11.375 7.75272 11.375 8.25V18.0759C10.7947 17.7789 10.1519 17.6243 9.5 17.625ZM21.125 17.625H15.5C14.8479 17.6246 14.2051 17.7798 13.625 18.0778V8.25C13.625 7.75272 13.8225 7.27581 14.1742 6.92418C14.5258 6.57254 15.0027 6.375 15.5 6.375H21.125V17.625Z" fill="white"/>
</svg>
