<svg width="39" height="50" viewBox="0 0 39 50" fill="none" xmlns="http://www.w3.org/2000/svg">
<path d="M31.5011 29.4128L29.3496 30.1454L29.2324 30.1856L28.51 30.4313L8.52661 37.2325L16.9025 48.8006C18.0605 50.4001 20.4431 50.3993 21.601 48.8006L34.2458 31.3282C35.1461 30.2122 35.924 28.9935 36.5591 27.6918L31.5011 29.4128Z" fill="#F8A137"/>
<path d="M5.85297 16.5524L7.93518 19.4297L0.203686 22.0605C0.069322 21.1439 0 20.2059 0 19.2508C0 14.038 2.07195 9.30873 5.43789 5.8418L6.70707 9.89668C5.57225 10.7525 4.83711 12.1107 4.83711 13.6392C4.83711 14.6944 5.1974 15.7283 5.85211 16.5524H5.85297Z" fill="#23B24D"/>
<path d="M13.8998 32.8722L7.05577 35.2009L4.1939 31.2478L3.13696 29.7886L3.13525 29.7861C2.06547 28.1532 1.23789 26.3491 0.702148 24.4226L9.405 21.4606L9.71738 21.3545L10.2386 21.1774L13.8998 32.873V32.8722Z" fill="#F0602B"/>
<path d="M24.1386 13.9148L12.1485 17.9954L13.2208 16.5148L13.457 16.1879L13.4725 16.1596C13.9534 15.4074 14.2085 14.5361 14.2085 13.6384C14.2085 11.0555 12.1057 8.95361 9.52283 8.95361C9.32428 8.95361 9.1283 8.96645 8.93574 8.99041L7.39868 4.08056C10.6654 1.52337 14.781 0 19.2518 0C19.4298 0 19.607 0.00257415 19.785 0.00685326L24.1386 13.9148Z" fill="#F8A137"/>
<path d="M25.156 25.797L27.0397 28.3996L16.169 32.0993L12.5078 20.4036L24.8548 16.2024L25.8218 19.2928C24.7948 20.152 24.141 21.4434 24.141 22.8838C24.141 23.939 24.5013 24.9729 25.156 25.797Z" fill="#23B24D"/>
<path d="M36.0592 9.85733L26.4073 13.142L22.3721 0.251587C28.2593 1.21182 33.2496 4.84136 36.0592 9.85733Z" fill="#F0602B"/>
<path d="M38.5029 19.2508C38.5029 21.1696 38.2222 23.0224 37.7001 24.7709L31.7821 26.7846L32.715 25.4949L32.7466 25.4487C33.2464 24.6861 33.51 23.7987 33.51 22.8838C33.51 20.3009 31.4081 18.199 28.8253 18.199C28.548 18.199 28.2767 18.223 28.0122 18.2701L27.123 15.4296L37.1028 12.0328C38.0057 14.2623 38.502 16.6988 38.502 19.2508H38.5029Z" fill="#23B24D"/>
<path d="M28.8256 19.3972C28.6733 19.3972 28.5218 19.4066 28.3746 19.4263C27.5213 19.5367 26.7648 19.9552 26.2205 20.5671C25.6728 21.1833 25.3398 21.9955 25.3398 22.8847C25.3398 23.7131 25.6283 24.474 26.1109 25.0722L28.2274 27.9965L28.4251 28.2704C28.6228 28.5434 29.0301 28.5434 29.227 28.2704L30.5646 26.4227L31.5531 25.0576L31.7448 24.7932C31.9245 24.5185 32.0666 24.2181 32.1633 23.898C32.2609 23.5779 32.3131 23.2373 32.3131 22.8855C32.3131 20.9599 30.7521 19.3989 28.8265 19.3989L28.8256 19.3972ZM28.8256 24.3721C27.9433 24.3721 27.2269 23.6566 27.2269 22.7734C27.2269 21.8902 27.9424 21.1756 28.8256 21.1756C29.7088 21.1756 30.4234 21.8902 30.4234 22.7734C30.4234 23.6566 29.7088 24.3721 28.8256 24.3721Z" fill="#23B24D"/>
<path d="M9.52263 10.1526C9.44817 10.1526 9.37457 10.1552 9.30097 10.1594C8.44515 10.2134 7.6732 10.5745 7.09466 11.1359C6.44167 11.7701 6.03516 12.6567 6.03516 13.6392C6.03516 14.4676 6.32357 15.2285 6.80625 15.8267L9.12125 19.0258C9.31894 19.2979 9.72546 19.2979 9.92315 19.0258L11.4268 16.9495L12.2501 15.8113L12.441 15.5468C12.7996 14.9991 13.0092 14.3427 13.0092 13.6384C13.0092 11.7128 11.4474 10.1517 9.52177 10.1517L9.52263 10.1526ZM9.51664 15.1566C8.63429 15.1566 7.91882 14.4411 7.91882 13.5579C7.91882 12.6747 8.63343 11.9601 9.51664 11.9601C10.3998 11.9601 11.1153 12.6756 11.1153 13.5579C11.1153 14.4403 10.3998 15.1566 9.51664 15.1566Z" fill="#F0602B"/>
</svg>
