<svg width="25" height="25" viewBox="0 0 25 25" fill="none" xmlns="http://www.w3.org/2000/svg">
<path d="M24.2966 5.43891C24.2144 5.34062 24.1117 5.26156 23.9957 5.20732C23.8796 5.15308 23.7531 5.12498 23.625 5.125H5.98063L5.44578 2.18719C5.37252 1.78396 5.16007 1.41923 4.84546 1.15659C4.53085 0.893952 4.13405 0.750059 3.72422 0.75H1.75C1.51794 0.75 1.29538 0.842187 1.13128 1.00628C0.967187 1.17038 0.875 1.39294 0.875 1.625C0.875 1.85706 0.967187 2.07962 1.13128 2.24372C1.29538 2.40781 1.51794 2.5 1.75 2.5H3.71875L6.51438 17.8442C6.59673 18.2993 6.79783 18.7245 7.09734 19.0769C6.68396 19.463 6.38559 19.956 6.23531 20.5014C6.08504 21.0467 6.08874 21.623 6.246 22.1664C6.40326 22.7097 6.70794 23.1989 7.12625 23.5797C7.54456 23.9605 8.06015 24.218 8.61586 24.3236C9.17157 24.4292 9.74568 24.3789 10.2745 24.1782C10.8034 23.9774 11.2663 23.6341 11.612 23.1864C11.9576 22.7386 12.1725 22.2039 12.2328 21.6414C12.2931 21.079 12.1965 20.5109 11.9536 20H16.9214C16.7257 20.4098 16.6244 20.8583 16.625 21.3125C16.625 21.9182 16.8046 22.5103 17.1411 23.0139C17.4776 23.5176 17.9559 23.9101 18.5155 24.1419C19.0751 24.3737 19.6909 24.4343 20.285 24.3162C20.879 24.198 21.4247 23.9063 21.853 23.478C22.2813 23.0497 22.573 22.504 22.6912 21.91C22.8093 21.3159 22.7487 20.7001 22.5169 20.1405C22.2851 19.5809 21.8926 19.1026 21.3889 18.7661C20.8853 18.4296 20.2932 18.25 19.6875 18.25H9.09672C8.89181 18.25 8.6934 18.178 8.5361 18.0467C8.37879 17.9154 8.27257 17.733 8.23594 17.5314L7.88922 15.625H20.5767C21.1915 15.6249 21.7867 15.4091 22.2586 15.0151C22.7305 14.6212 23.0492 14.0741 23.1591 13.4692L24.4891 6.15641C24.5116 6.03001 24.506 5.90021 24.4727 5.77621C24.4395 5.65221 24.3793 5.53706 24.2966 5.43891ZM10.5 21.3125C10.5 21.5721 10.423 21.8258 10.2788 22.0417C10.1346 22.2575 9.9296 22.4258 9.68977 22.5251C9.44994 22.6244 9.18604 22.6504 8.93144 22.5998C8.67684 22.5491 8.44298 22.4241 8.25942 22.2406C8.07587 22.057 7.95086 21.8232 7.90022 21.5686C7.84958 21.314 7.87557 21.0501 7.97491 20.8102C8.07425 20.5704 8.24248 20.3654 8.45831 20.2212C8.67415 20.077 8.92791 20 9.1875 20C9.5356 20 9.86944 20.1383 10.1156 20.3844C10.3617 20.6306 10.5 20.9644 10.5 21.3125ZM21 21.3125C21 21.5721 20.923 21.8258 20.7788 22.0417C20.6346 22.2575 20.4296 22.4258 20.1898 22.5251C19.9499 22.6244 19.686 22.6504 19.4314 22.5998C19.1768 22.5491 18.943 22.4241 18.7594 22.2406C18.5759 22.057 18.4509 21.8232 18.4002 21.5686C18.3496 21.314 18.3756 21.0501 18.4749 20.8102C18.5742 20.5704 18.7425 20.3654 18.9583 20.2212C19.1742 20.077 19.4279 20 19.6875 20C20.0356 20 20.3694 20.1383 20.6156 20.3844C20.8617 20.6306 21 20.9644 21 21.3125ZM21.4375 13.1564C21.4008 13.3586 21.2941 13.5414 21.1361 13.6728C20.9781 13.8041 20.7789 13.8757 20.5734 13.875H7.57094L6.29891 6.875H22.5761L21.4375 13.1564Z" fill="white"/>
</svg>
